HIERARCHY
ROOT ui
{
	 OFFSET 0 0 0
	 CHANNELS 3 XPosition YPosition Z Position
	 EndSite
	 {
	 OFFSET 0 -1 0
	 }
}
ROOT li
{
	 OFFSET 0 0 0
	 CHANNELS 3 XPosition YPosition Z Position
	 EndSite
	 {
	 OFFSET 0 -1 0
	 }
}
ROOT ul
{
	 OFFSET 0 0 0
	 CHANNELS 3 XPosition YPosition Z Position
	 EndSite
	 {
	 OFFSET 0 -1 0
	 }
}
ROOT ll
{
	 OFFSET 0 0 0
	 CHANNELS 3 XPosition YPosition Z Position
	 EndSite
	 {
	 OFFSET 0 -1 0
	 }
}
ROOT tt
{
	 OFFSET 0 0 0
	 CHANNELS 3 XPosition YPosition Z Position
	 EndSite
	 {
	 OFFSET 0 -1 0
	 }
}
ROOT tb
{
	 OFFSET 0 0 0
	 CHANNELS 3 XPosition YPosition Z Position
	 EndSite
	 {
	 OFFSET 0 -1 0
	 }
}
ROOT td
{
	 OFFSET 0 0 0
	 CHANNELS 3 XPosition YPosition Z Position
	 EndSite
	 {
	 OFFSET 0 -1 0
	 }
}
ROOT v
{
	 OFFSET 0 0 0
	 CHANNELS 3 XPosition YPosition Z Position
	 EndSite
	 {
	 OFFSET 0 -1 0
	 }
}
ROOT bn
{
	 OFFSET 0 0 0
	 CHANNELS 3 XPosition YPosition Z Position
	 EndSite
	 {
	 OFFSET 0 -1 0
	 }
}
MOTION
Frames: 13
Frame Time: 0.002
0.003263951063156128	-0.0033204729557037354	0		0.6658615112304688	-2.605128662109375	0		-1.0915660400390625	-0.09488665008544922	0		-0.5595758056640625	-2.53456298828125	0		1.415953369140625	-0.9735336303710938	0		3.0519697265625	-0.282610107421875	0		4.61430810546875	-0.01806732749938965	0		5.63669677734375	0.1599419403076172	0		-0.33398544311523437	5.88580517578125	0		
-0.0317601318359375	0.006313386917114258	0		0.6268150634765625	-2.59945703125	0		-1.0997457275390625	-0.10348977661132812	0		-0.5006692199707031	-2.5347412109375	0		1.4168463134765625	-0.9742030639648438	0		3.035722412109375	-0.29912490844726564	0		4.62402392578125	-0.03879879760742187	0		5.63442919921875	0.1450367431640625	0		-0.33311553955078127	5.8861279296875	0		
-0.003838627099990845	0.0053797211647033695	0		0.6356513061523438	-2.611224609375	0		-1.1007452392578125	-0.09517761993408203	0		-0.53673681640625	-2.535125244140625	0		1.4177720947265624	-0.9748992919921875	0		3.040688720703125	-0.29485040283203123	0		4.61306787109375	-0.025381488800048826	0		5.63508740234375	0.14385600280761718	0		-0.3322127685546875	5.88542578125	0		
-0.019973108291625977	-0.0041900272369384765	0		0.6386244506835937	-2.60895703125	0		-1.0978802490234374	-0.10491304779052735	0		-0.52485888671875	-2.54393701171875	0		1.3977257080078125	-0.9744323120117188	0		3.061570556640625	-0.30273297119140624	0		4.61894091796875	-0.03413188171386719	0		5.6315419921875	0.1600235137939453	0		-0.33227297973632813	5.88571728515625	0		
-0.0019446710348129273	0.00394047999382019	0		0.6436109619140625	-2.60571435546875	0		-1.08383447265625	-0.0947484588623047	0		-0.56677587890625	-2.529290283203125	0		1.40677197265625	-0.9642239990234375	0		3.050738037109375	-0.27835256958007815	0		4.6229443359375	-0.0288795166015625	0		5.63933984375	0.15516676330566406	0		-0.3313229370117188	5.884994140625	0		
-0.016904855728149416	0.013357315063476562	0		0.6705418090820312	-2.60865966796875	0		-1.0888382568359376	-0.09041584014892579	0		-0.5298539428710938	-2.533320068359375	0		1.4077235107421875	-0.96494677734375	0		3.0484755859375	-0.30405120849609374	0		4.61591455078125	-0.02753858757019043	0		5.63711767578125	0.14012515258789063	0		-0.3303605346679688	5.8842744140625	0		
0.008871341705322265	-0.007567973136901856	0		0.6454999389648437	-2.60714892578125	0		-1.092914794921875	-0.09407944488525391	0		-0.530930908203125	-2.536011474609375	0		1.4306513671875	-0.96785205078125	0		3.06251806640625	-0.29388534545898437	0		4.6168642578125	-0.028265962600708006	0		5.63357666015625	0.15624990844726563	0		-0.33037265014648437	5.8855732421875	0		
8.996869921684265E-4	0.0018149850368499756	0		0.6604606323242187	-2.6039677734375	0		-1.0919735107421875	-0.09476730346679688	0		-0.5429515380859375	-2.5305908203125	0		1.4006318359375	-0.9632874755859375	0		3.04542431640625	-0.2984420166015625	0		4.6178056640625	-0.028986976623535155	0		5.63424853515625	0.15499348449707032	0		-0.33038796997070313	5.8858896484375	0		
0.001830394983291626	0.001143625020980835	0		0.6203629760742188	-2.60529052734375	0		-1.0840870361328125	-0.10048997497558594	0		-0.554135986328125	-2.54215380859375	0		1.4105284423828126	-0.9670478515625	0		3.041413330078125	-0.2920953063964844	0		4.60773681640625	-0.02960106086730957	0		5.63912890625	0.136365234375	0		-0.3284179382324219	5.88421240234375	0		
0.012831647872924805	0.010414532661437988	0		0.6502408447265625	-2.60718994140625	0		-1.0751126708984375	-0.0941901626586914	0		-0.5492132568359375	-2.538824951171875	0		1.414459228515625	-0.9647311401367188	0		3.075185791015625	-0.30905435180664065	0		4.617642578125	-0.031369935989379885	0		5.6384462890625	0.16113157653808594	0		-0.3464137268066406	5.8867373046875	0		
-0.01227279281616211	0.010031356811523437	0		0.6182409057617188	-2.591521484375	0		-1.080176025390625	-0.08973234558105468	0		-0.5212838134765625	-2.53165966796875	0		1.415341064453125	-0.9653576049804687	0		3.0443544921875	-0.2774268798828125	0		4.62359716796875	-0.02508181571960449	0		5.6433193359375	0.1477554168701172	0		-0.3123742980957031	5.89384814453125	0		
0.0075336709022521976	0.0022970190048217775	0		0.665962646484375	-2.604508056640625	0		-1.08334423828125	-0.09425088500976563	0		-0.56047119140625	-2.533874755859375	0		1.4102547607421876	-0.9588978881835938	0		3.049018310546875	-0.30107794189453124	0		4.631412109375	-0.031784004211425784	0		5.63681689453125	0.1502306213378906	0		-0.32650140380859377	5.88341357421875	0		
-0.02165605926513672	-9.728559851646424E-4	0		0.6407784423828125	-2.60182470703125	0		-1.08753662109375	-0.09771847534179688	0		-0.5257258911132813	-2.5396904296875	0		1.4080382080078124	-0.9634271850585937	0		3.04984814453125	-0.30166268920898437	0		4.61819482421875	-0.03827510452270508	0		5.63741064453125	0.14914274597167967	0		-0.326552734375	5.8838974609375	0		
